<mxfile host="app.diagrams.net" modified="2023-08-15T08:15:58.259Z" agent="Mozilla/5.0 (Windows NT 10.0; Win64; x64) AppleWebKit/537.36 (KHTML, like Gecko) Chrome/115.0.0.0 Safari/537.36" version="21.6.2" etag="d7HcjQL_0hc14b6W4KZC" type="github">
  <diagram name="第 1 页" id="fyiY59egkxkCICDe3R1c">
    <mxGraphModel>
      <root>
        <mxCell id="0" />
        <mxCell id="1" parent="0" />
      </root>
    </mxGraphModel>
  </diagram>
</mxfile>
